HIERARCHY
ROOT Hips
{
    OFFSET 0.000000 0.000000 0.000000
    CHANNELS 6 Xposition Yposition Zposition Zrotation Xrotation Yrotation
    JOINT Spine
    {
        OFFSET -0.000000 8.359812 0.000000
        CHANNELS 3 Zrotation Xrotation Yrotation
        JOINT Spine1
        {
            OFFSET -0.000000 28.141317 0.000000
            CHANNELS 3 Zrotation Xrotation Yrotation
            JOINT Neck
            {
                OFFSET -0.000000 28.025745 2.547795
                CHANNELS 3 Zrotation Xrotation Yrotation
                JOINT Head
                {
                    OFFSET -0.000000 14.272848 -2.038978
                    CHANNELS 3 Zrotation Xrotation Yrotation
                    End Site
                    {
                        OFFSET -0.000000 25.487228 0.000000
                    }
                }
            }
            JOINT LeftShoulder
            {
                OFFSET 4.059574 26.120710 -0.180480
                CHANNELS 3 Zrotation Xrotation Yrotation
                JOINT LeftArm
                {
                    OFFSET 11.584161 0.000000 0.000000
                    CHANNELS 3 Zrotation Xrotation Yrotation
                    JOINT LeftForeArm
                    {
                        OFFSET 30.766815 0.000000 0.000000
                        CHANNELS 3 Zrotation Xrotation Yrotation
                        JOINT LeftHand
                        {
                            OFFSET 29.436810 0.000000 0.000000
                            CHANNELS 3 Zrotation Xrotation Yrotation
                            End Site
                            {
                                OFFSET 15.292337 0.000000 0.000000
                            }
                        }
                    }
                }
            }
            JOINT RightShoulder
            {
                OFFSET -4.095355 26.120710 -0.180480
                CHANNELS 3 Zrotation Xrotation Yrotation
                JOINT RightArm
                {
                    OFFSET -11.584161 0.000000 0.000000
                    CHANNELS 3 Zrotation Xrotation Yrotation
                    JOINT RightForeArm
                    {
                        OFFSET -30.766815 0.000000 0.000000
                        CHANNELS 3 Zrotation Xrotation Yrotation
                        JOINT RightHand
                        {
                            OFFSET -29.436810 0.000000 0.000000
                            CHANNELS 3 Zrotation Xrotation Yrotation
                            End Site
                            {
                                OFFSET -15.292337 0.000000 0.000000
                            }
                        }
                    }
                }
            }
        }
    }
    JOINT LeftUpLeg
    {
        OFFSET 10.194892 0.000000 0.000000
        CHANNELS 3 Zrotation Xrotation Yrotation
        JOINT LeftLeg
        {
            OFFSET -0.000000 -32.520012 0.000000
            CHANNELS 3 Zrotation Xrotation Yrotation
            JOINT LeftFoot
            {
                OFFSET -0.000000 -49.106510 0.000000
                CHANNELS 3 Zrotation Xrotation Yrotation
                JOINT LeftToeBase
                {
                    OFFSET -0.000000 -6.626679 15.292337
                    CHANNELS 3 Zrotation Xrotation Yrotation
                    End Site
                    {
                        OFFSET -0.000000 0.000000 4.077957
                    }
                }
            }
        }
    }
    JOINT RightUpLeg
    {
        OFFSET -10.194892 0.000000 0.000000
        CHANNELS 3 Zrotation Xrotation Yrotation
        JOINT RightLeg
        {
            OFFSET -0.000000 -32.520012 0.000000
            CHANNELS 3 Zrotation Xrotation Yrotation
            JOINT RightFoot
            {
                OFFSET -0.000000 -49.106510 0.000000
                CHANNELS 3 Zrotation Xrotation Yrotation
                JOINT RightToeBase
                {
                    OFFSET -0.000000 -6.626679 15.292337
                    CHANNELS 3 Zrotation Xrotation Yrotation
                    End Site
                    {
                        OFFSET -0.000000 0.000000 4.077957
                    }
                }
            }
        }
    }
}
MOTION
Frames:    8
Frame Time:    0.008333
78.320946    87.899712    41.437851    -3.278244    -1.735694    81.965858    4.145565    -10.327920    -1.452075    1.027995    11.101195    -1.926813    4.346659    26.176804    18.005499    -16.605942    -8.505858    15.670240    13.302360    -1.019159    4.588229    -50.202499    12.421471    17.743153    15.032396    -3.553737    -33.354752    14.993176    0.833605    -1.080484    -16.525351    -0.847814    -3.403453    40.673073    28.551222    8.990825    -14.929859    -2.560180    37.121941    -16.871727    3.661574    -7.944099    8.221298    -1.864803    -1.399156    -4.658006    3.532033    -3.281776    -0.336522    -4.526458    31.103052    0.000000    0.000000    0.000000    1.391583    -2.348970    -0.156739    2.475779    4.132903    -0.827612    -1.781342    -3.476809    -7.224430    0.000000    0.000000    0.000000    
78.272942    87.893066    41.496609    -3.363406    -1.755448    81.957985    4.172493    -10.377008    -1.454392    1.027382    11.269926    -1.934838    3.984218    25.955675    17.974800    -15.879407    -8.222807    15.785834    13.250951    -0.857624    4.635522    -50.925293    12.644013    17.825747    15.253410    -3.380524    -33.900959    15.276787    1.092847    -1.520344    -16.499231    -0.782184    -3.484905    41.241287    29.255489    8.806642    -15.012414    -2.634223    37.906704    -17.374062    3.766874    -7.944906    8.328255    -2.013973    -1.277706    -4.699231    3.605374    -3.344568    -0.295366    -4.547784    31.054930    0.000000    0.000000    0.000000    1.465135    -2.346099    0.114117    2.493306    3.939205    -1.171765    -1.809316    -3.401421    -7.124756    0.000000    0.000000    0.000000    
78.208961    87.896469    41.544533    -3.485102    -1.700393    81.958519    4.109523    -10.489406    -1.445181    1.058517    11.512217    -1.929280    4.293736    26.150639    17.988176    -16.499546    -8.340847    15.691527    13.243081    -0.856391    4.710689    -51.500957    12.645742    17.871593    15.313567    -3.004735    -34.493114    14.850772    1.529329    -1.915789    -16.495010    -0.619515    -3.699661    41.710751    29.910868    8.797519    -15.450913    -2.496853    38.668255    -16.656134    4.147292    -8.116086    8.334627    -2.229662    -1.226158    -4.706875    3.682466    -3.297027    -0.408128    -4.502800    30.996117    0.000000    0.000000    0.000000    1.459335    -2.461040    0.168909    2.504902    3.853873    -1.270006    -1.838902    -3.355607    -7.082050    0.000000    0.000000    0.000000    
78.157654    87.897820    41.599297    -3.575140    -1.677497    81.953133    4.057604    -10.543492    -1.432081    1.138277    11.678617    -1.923067    4.020649    25.932484    17.960466    -15.997609    -8.058011    15.771119    13.107505    -0.736142    4.772805    -52.142544    12.925848    17.896666    15.898564    -2.749926    -34.903442    13.813875    1.989951    -2.412624    -16.449873    -0.300993    -4.011731    41.986275    30.710819    9.071177    -16.059277    -2.403869    39.099831    -16.177984    4.477647    -8.019580    8.381749    -2.378500    -1.153512    -4.729139    3.730747    -3.316729    -0.457799    -4.467665    30.969986    0.000000    0.000000    0.000000    1.479344    -2.536763    0.188280    2.524453    3.777507    -1.313587    -1.879459    -3.312213    -7.050512    0.000000    0.000000    0.000000    
78.099213    87.895164    41.648430    -3.691384    -1.642134    81.941124    4.029739    -10.605876    -1.452943    1.196993    11.834034    -1.951204    3.824248    26.066738    17.990501    -15.983519    -8.317248    15.756709    13.010129    -0.723815    4.835736    -52.730331    13.059833    18.077394    16.469448    -2.317548    -35.288425    12.383550    2.633267    -3.005423    -16.456148    -0.331697    -4.092489    42.460808    31.664375    8.940538    -16.803881    -2.244287    39.488007    -15.691570    4.930080    -7.973014    8.417317    -2.550184    -1.122615    -4.749202    3.763513    -3.338232    -0.500480    -4.448198    30.994617    0.000000    0.000000    0.000000    1.452695    -2.669090    0.261826    2.599712    3.742146    -1.267803    -1.918514    -3.286646    -7.154481    0.000000    0.000000    0.000000    
78.032906    87.897095    41.694130    -3.807781    -1.592636    81.953987    4.016605    -10.648348    -1.500839    1.191271    11.954567    -2.000048    3.906251    26.313583    18.083158    -16.456175    -8.615165    15.730693    12.871028    -0.572867    4.959456    -53.205006    13.185347    18.125418    17.279898    -1.670327    -35.618748    12.242467    3.577008    -3.245335    -16.457504    -0.376459    -4.136292    42.943783    32.721493    8.832229    -17.611448    -2.177408    39.692810    -15.520081    5.319064    -7.991168    8.420478    -2.740041    -1.158125    -4.750420    3.805640    -3.319390    -0.565009    -4.412872    31.017813    0.000000    0.000000    0.000000    1.432407    -2.826059    0.247824    2.634259    3.740694    -1.207591    -1.987092    -3.275784    -7.202243    0.000000    0.000000    0.000000    
77.995262    87.891197    41.759880    -3.898551    -1.584548    81.901077    4.035239    -10.699808    -1.494214    1.165652    12.085798    -1.995681    3.708673    26.202320    18.032560    -16.126225    -8.481096    15.742361    12.867959    -0.568258    5.038595    -53.750057    13.348434    18.211897    18.100344    -0.982879    -35.838017    11.609261    4.597957    -3.161533    -16.392477    -0.357692    -4.141003    43.363487    33.697006    8.721169    -18.489775    -1.986351    39.805286    -15.033540    5.820308    -7.992269    8.484196    -2.797154    -1.030207    -4.753724    3.743143    -3.356801    -0.596798    -4.391026    30.979786    0.000000    0.000000    0.000000    1.479494    -2.917119    0.294613    2.641360    3.706863    -1.152318    -2.035832    -3.256766    -7.240237    0.000000    0.000000    0.000000    
77.945786    87.889114    41.815796    -3.990458    -1.547114    81.887848    3.992126    -10.735844    -1.490912    1.211626    12.175965    -1.995448    3.698081    26.276625    18.077843    -16.199442    -8.469020    15.777925    12.683362    -0.587218    4.997571    -54.116039    13.526154    18.371262    18.980322    -0.146638    -36.028286    11.284098    5.793371    -2.890221    -16.340141    -0.267486    -4.192088    43.661331    34.394711    8.773617    -19.151855    -1.626955    39.763973    -15.004940    6.402215    -7.904723    8.500485    -2.957784    -0.831881    -4.737151    3.822002    -3.465653    -0.646726    -4.381333    30.927280    0.000000    0.000000    0.000000    1.513716    -3.052305    0.127072    2.602964    3.720798    -1.053267    -2.047468    -3.244171    -7.154996    0.000000    0.000000    0.000000    
